<svg xmlns="http://www.w3.org/2000/svg" xmlns:xlink="http://www.w3.org/1999/xlink" xml:space="preserve" style="shape-rendering:geometricPrecision;text-rendering:geometricPrecision;image-rendering:optimizeQuality;" viewBox="0 0 173.397 216.74624999999997" x="0px" y="0px" fill-rule="evenodd" clip-rule="evenodd"><defs><style type="text/css">
   
    .fil1 {fill:none}
    .fil0 {fill:#E0E7E9;fill-rule:nonzero}
   
  </style></defs><g><g><path class="fil0" d="M18.1844 147.34l17.8389 0 0 -38.2703 -17.8389 0 0 38.2703zm19.1344 2.5885l-20.4301 0c-0.7148,0 -1.2955,-0.5768 -1.2955,-1.2957l0 -40.8573c0,-0.7149 0.5807,-1.2943 1.2955,-1.2943l20.4301 0c0.7149,0 1.2955,0.5794 1.2955,1.2943l0 40.8573c0,0.7189 -0.5806,1.2957 -1.2955,1.2957z"/><path class="fil0" d="M50.0573 147.34l17.8362 0 0 -62.0493 -17.8362 0 0 62.0493zm19.1317 2.5885l-20.4274 0c-0.7147,0 -1.2942,-0.5768 -1.2942,-1.2957l0 -64.6377c0,-0.7148 0.5795,-1.2942 1.2942,-1.2942l20.4274 0c0.7149,0 1.2957,0.5794 1.2957,1.2942l0 64.6377c0,0.7189 -0.5808,1.2957 -1.2957,1.2957z"/><path class="fil0" d="M81.1067 147.34l17.8402 0 0 -46.9317 -17.8402 0 0 46.9317zm19.1359 2.5885l-20.4301 0c-0.7149,0 -1.2956,-0.5768 -1.2956,-1.2957l0 -49.5187c0,-0.7161 0.5807,-1.2955 1.2956,-1.2955l20.4301 0c0.7148,0 1.2955,0.5794 1.2955,1.2955l0 49.5187c0,0.7189 -0.5807,1.2957 -1.2955,1.2957z"/><path class="fil0" d="M111.345 147.34l17.8403 0 0 -16.2872 -17.8403 0 0 16.2872zm19.1359 2.5885l-20.4314 0c-0.7149,0 -1.2942,-0.5768 -1.2942,-1.2957l0 -18.8756c0,-0.7148 0.5793,-1.2942 1.2942,-1.2942l20.4314 0c0.7148,0 1.2942,0.5794 1.2942,1.2942l0 18.8756c0,0.7189 -0.5794,1.2957 -1.2942,1.2957z"/><path class="fil0" d="M142.806 147.34l17.8415 0 0 -81.1717 -17.8415 0 0 81.1717zm19.1357 2.5885l-20.43 0c-0.7148,0 -1.2956,-0.5768 -1.2956,-1.2957l0 -83.7601c0,-0.7148 0.5808,-1.2942 1.2956,-1.2942l20.43 0c0.7149,0 1.2956,0.5794 1.2956,1.2942l0 83.7601c0,0.7189 -0.5807,1.2957 -1.2956,1.2957z"/><path class="fil0" d="M60.5828 52.0028c0.4479,0 0.8824,0.2334 1.1226,0.6492l14.5248 25.1563 73.1461 -42.2308c0.2964,-0.1716 0.6505,-0.2186 0.9818,-0.1287 0.3299,0.0884 0.6129,0.3057 0.7846,0.6035l1.5114 2.6166 7.0721 -12.3535 -14.3425 -0.2213 1.4859 2.5763c0.1731,0.2978 0.216,0.6519 0.1288,0.9832 -0.0872,0.3312 -0.3071,0.6142 -0.6035,0.7859l-66.8829 38.615c-0.3004,0.1729 -0.6544,0.2185 -0.9843,0.13 -0.3314,-0.0884 -0.6143,-0.3057 -0.786,-0.6035l-14.5155 -25.1429 -50.0029 28.8701 2.9506 5.1353 43.7611 -25.2664c0.2051,-0.1179 0.4278,-0.1743 0.6478,-0.1743zm15.1726 28.8687c-0.1113,0 -0.2266,-0.0147 -0.3339,-0.0429 -0.334,-0.0899 -0.617,-0.3072 -0.786,-0.6035l-14.5261 -25.1563 -43.7639 25.2662c-0.3003,0.1717 -0.6544,0.2186 -0.9843,0.1288 -0.334,-0.0885 -0.617,-0.3057 -0.7859,-0.6049l-4.2422 -7.3804c-0.3581,-0.6196 -0.1421,-1.4096 0.4748,-1.7663l52.2426 -30.1643c0.3005,-0.1717 0.6518,-0.2187 0.9858,-0.1288 0.3299,0.0885 0.6129,0.3058 0.7846,0.6035l14.5154 25.1416 64.6445 -37.3207 -1.9836 -3.4321c-0.2333,-0.4037 -0.2333,-0.9013 0.0027,-1.3037 0.2374,-0.4022 0.6652,-0.6558 1.1373,-0.6383l18.8247 0.291c0.456,0.0067 0.8771,0.2561 1.1024,0.6532 0.2294,0.3997 0.2267,0.8879 0,1.2848l-9.2809 16.2121c-0.2293,0.4024 -0.6572,0.6505 -1.1226,0.6518l0 0c-0.4653,0 -0.8905,-0.2467 -1.1225,-0.6478l-1.9903 -3.4454 -73.1448 42.2294c-0.1998,0.1154 -0.4224,0.173 -0.6478,0.173z"/></g></g><rect class="fil1" width="173.397" height="173.397"/></svg>